name Walk9.mot
datacolumns 19
datarows 12
range 2.17000000 2.22500000
endheader

                time	   L_ground_force_vx	   L_ground_force_vy	   L_ground_force_vz	   L_ground_force_px	   L_ground_force_py	   L_ground_force_pz	   R_ground_force_vx	   R_ground_force_vy	   R_ground_force_vz	   R_ground_force_px	   R_ground_force_py	   R_ground_force_pz	   L_ground_torque_x	   L_ground_torque_y	   L_ground_torque_z	   R_ground_torque_x	   R_ground_torque_y	   R_ground_torque_z	
          2.17000000	         -0.00000000	         -0.00000001	          0.00000000	          0.00000000	          0.00000000	          0.00000000	         -1.21508538	         -5.51781981	         -0.17007756	         -0.00132972	          0.00000000	         -0.00033135	          0.00000000	         -0.00000000	          0.00000000	          0.00000000	          0.27406443	          0.00000000	
          2.17500000	         -0.00000000	         -0.00000000	          0.00000000	          0.00000000	          0.00000000	          0.00000000	         -1.08646416	         -4.93566655	         -0.20225581	         -0.00919029	          0.00000000	         -0.00142931	          0.00000000	         -0.00000000	          0.00000000	          0.00000000	          0.25151320	          0.00000000	
          2.18000000	         -0.00000000	         -0.00000000	          0.00000000	          0.00000000	          0.00000000	          0.00000000	         -0.91805569	         -4.17199139	         -0.20689511	         -0.01350428	          0.00000000	         -0.00202036	          0.00000000	         -0.00000000	          0.00000000	          0.00000000	          0.21715987	          0.00000000	
          2.18500000	         -0.00000000	          0.00000000	          0.00000000	          0.00000000	          0.00000000	          0.00000000	         -0.73745150	         -3.35230723	         -0.19350730	         -0.01520274	          0.00000000	         -0.00223961	          0.00000000	         -0.00000000	          0.00000000	          0.00000000	          0.17795503	          0.00000000	
          2.19000000	          0.00000000	          0.00000000	          0.00000000	          0.00000000	          0.00000000	          0.00000000	         -0.56331003	         -2.56153269	         -0.16961787	         -0.01508957	          0.00000000	         -0.00220308	          0.00000000	         -0.00000000	          0.00000000	          0.00000000	          0.13873963	          0.00000000	
          2.19500000	          0.00000000	          0.00000000	         -0.00000000	          0.00000000	          0.00000000	          0.00000000	         -0.40708547	         -1.85183804	         -0.14088332	         -0.01382360	          0.00000000	         -0.00200542	          0.00000000	         -0.00000000	          0.00000000	          0.00000000	          0.10261893	          0.00000000	
          2.20000000	          0.00000000	          0.00000000	         -0.00000000	          0.00000000	          0.00000000	          0.00000000	         -0.27470615	         -1.25026660	         -0.11131424	         -0.01191847	          0.00000000	         -0.00172006	          0.00000000	         -0.00000000	          0.00000000	          0.00000000	          0.07133951	          0.00000000	
          2.20500000	          0.00000000	          0.00000000	         -0.00000000	         -0.00000000	          0.00000000	         -0.00000000	         -0.16808792	         -0.76560953	         -0.08354855	         -0.00975415	          0.00000000	         -0.00140103	          0.00000000	          0.00000000	          0.00000000	          0.00000000	          0.04563853	          0.00000000	
          2.21000000	          0.00000000	          0.00000000	         -0.00000000	         -0.00000000	          0.00000000	         -0.00000000	         -0.08642199	         -0.39425787	         -0.05913528	         -0.00759477	          0.00000000	         -0.00108563	          0.00000000	          0.00000000	          0.00000000	          0.00000000	          0.02554753	          0.00000000	
          2.21500000	          0.00000000	          0.00000000	         -0.00000000	         -0.00000000	          0.00000000	         -0.00000000	         -0.02721628	         -0.12493622	         -0.03880263	         -0.00560935	          0.00000000	         -0.00079752	          0.00000000	          0.00000000	          0.00000000	          0.00000000	          0.01064306	          0.00000000	
          2.22000000	          0.00000000	          0.00000000	         -0.00000000	         -0.00000000	          0.00000000	         -0.00000000	          0.01290368	          0.05765548	         -0.02269488	         -0.00389251	          0.00000000	         -0.00054968	          0.00000000	          0.00000000	          0.00000000	          0.00000000	          0.00024338	          0.00000000	
          2.22500000	          0.00000000	          0.00000000	         -0.00000000	         -0.00000000	          0.00000000	         -0.00000000	          0.03761130	          0.17018815	         -0.01057040	         -0.00248368	          0.00000000	         -0.00034727	          0.00000000	          0.00000000	          0.00000000	          0.00000000	         -0.00644498	          0.00000000	
